:SAMPLES-PER-SECOND 30
:FULLY-SPECIFIED
:DEGREES
326
root  -6.78983 36.3927 4.35665 -179.567 -34.0213 178.915
RightUpLeg  -18.6176 14.7133 -1.94655
RightLeg  46.4488 -0.234042 -0.593416
RightFoot  -26.4873 -0.488096 -2.32158
RightToes  -9.31324e-010 0 -3.6325e-017
Spine  25.6567 -1.95822 2.17685
Spine1  -3.35946 -3.32413 9.41149
HEad  -33.4394 -1.80305 -5.60119
LeftShoulder1  0.0348714 3.40969 -31.0075
LeftArm  18.3698 10.9876 -32.2985
LeftForeArm  -170.284 -64.5115 -161.381
LeftHand  -0.436013 -2.32441 6.7829
RightShoulder  -0.791182 -5.97607 25.3646
RightArm  -0.15669 -8.02304 38.1428
RightForeArm  158.22 67.1824 155.442
RightHand  -1.24076 10.9373 -9.19436
LeftUpLeg  -36.2085 18.6168 3.88267
LeftLeg  30.2998 -0.160972 0.172998
LeftFoot  0.55616 0.280091 -2.67345
LeftToes  8.61288e-010 -5.99147e-011 2.1039e-011
327
root  -8.13525 36.2486 4.0647 -179.157 -32.8253 -179.98
RightUpLeg  -17.9087 16.232 -2.49516
RightLeg  46.2104 -0.245434 -0.597524
RightFoot  -28.2899 -0.360318 -1.13285
RightToes  -9.31324e-010 0 -3.6325e-017
Spine  26.5598 -1.90429 -0.422849
Spine1  -3.90525 -4.12081 12.2772
HEad  -35.3516 2.31956 -6.56144
LeftShoulder1  0.145151 3.11066 -30.7931
LeftArm  20.057 9.97627 -31.3642
LeftForeArm  -168.99 -62.2005 -163.233
LeftHand  -0.360007 -2.74961 5.34893
RightShoulder  -0.848743 -6.16939 25.2249
RightArm  -0.436722 -6.58303 36.3396
RightForeArm  163.112 63.8005 159.271
RightHand  -1.20534 10.3945 -9.22299
LeftUpLeg  -37.2526 20.0219 4.09538
LeftLeg  24.4674 2.58992 1.6725
LeftFoot  4.23548 0.278817 -2.43991
LeftToes  8.61288e-010 -5.99147e-011 2.1039e-011
328
root  -9.60659 36.0026 3.69671 -178.879 -31.9286 -178.417
RightUpLeg  -17.0539 17.204 -2.77245
RightLeg  46.0123 -0.072097 -0.401923
RightFoot  -30.4298 -0.193578 0.076001
RightToes  -9.31324e-010 0 -3.6325e-017
Spine  27.1117 -1.77408 -2.68607
Spine1  -4.63488 -4.88394 15.8573
HEad  -37.5875 5.60373 -8.23257
LeftShoulder1  0.180247 3.00979 -30.283
LeftArm  22.836 6.86682 -30.8366
LeftForeArm  -168.382 -60.2647 -164.551
LeftHand  -0.344183 -1.91053 5.69193
RightShoulder  -0.872321 -6.26639 24.9637
RightArm  -0.949498 -6.20293 34.3838
RightForeArm  167.666 59.8608 162.702
RightHand  -1.16832 11.0352 -8.66002
LeftUpLeg  -39.8847 22.4811 3.46094
LeftLeg  26.9697 1.43732 1.10557
LeftFoot  9.89829 -0.22965 1.07567
LeftToes  8.61288e-010 -5.99147e-011 2.1039e-011
329
root  -11.2081 35.8602 3.23833 -178.483 -31.9057 -177.397
RightUpLeg  -14.9152 17.2357 -3.53776
RightLeg  44.3624 0.232984 -0.0685408
RightFoot  -32.3822 0.000951549 1.19211
RightToes  -9.31324e-010 0 -3.6325e-017
Spine  27.1923 -1.43013 -4.94665
Spine1  -5.42343 -5.54798 20.0961
HEad  -40.112 7.9505 -9.58176
LeftShoulder1  0.262609 2.75388 -28.9384
LeftArm  25.4388 -0.303269 -31.0613
LeftForeArm  -168.728 -59.2709 -165.117
LeftHand  -0.367657 -1.37433 6.54595
RightShoulder  -0.830745 -6.11009 25.2773
RightArm  -0.912512 -5.13637 31.034
RightForeArm  170.351 56.34 165.021
RightHand  -1.41361 13.8808 -8.8524
LeftUpLeg  -42.8864 23.2035 2.33564
LeftLeg  34.3194 0.445973 0.714576
LeftFoot  6.40543 -0.894393 5.44168
LeftToes  8.61288e-010 -5.99147e-011 2.1039e-011
330
root  -12.7948 36.0565 2.75627 -177.44 -32.9425 -177.404
RightUpLeg  -11.4935 16.7118 -5.00058
RightLeg  40.0402 0.0650611 -0.211585
RightFoot  -32.6109 0.221516 2.35883
RightToes  -9.31324e-010 0 -3.6325e-017
Spine  26.7491 -0.983228 -6.44695
Spine1  -6.35643 -5.50252 22.2353
HEad  -42.3874 7.88584 -10.4525
LeftShoulder1  0.489097 1.97796 -25.8376
LeftArm  26.6159 -12.2002 -32.3458
LeftForeArm  -168.057 -59.7085 -164.921
LeftHand  -0.391392 -3.63619 5.27342
RightShoulder  -0.572833 -5.36877 23.793
RightArm  0.392166 -3.21957 27.3905
RightForeArm  172.052 53.7444 166.481
RightHand  -1.96714 17.4168 -10.4619
LeftUpLeg  -43.2724 21.7091 0.795611
LeftLeg  36.8976 0.969237 1.15011
LeftFoot  4.05919 -1.0244 7.37613
LeftToes  8.61288e-010 -5.99147e-011 2.1039e-011
